<svg width="80" height="91" viewBox="0 0 80 91" fill="none" xmlns="http://www.w3.org/2000/svg">
<path d="M72.57 51.0235C71.791 47.4881 70.6824 44.3721 69.2443 41.6756C67.9859 39.1588 66.4579 36.9716 64.6602 35.114C63.0423 33.4362 61.2446 32.058 59.2671 30.9793C57.5294 29.9607 55.6718 29.1817 53.6943 28.6424C52.0165 28.2229 50.2787 27.9233 48.481 27.7435C46.983 27.6237 45.4849 27.6237 43.9868 27.7435C42.9681 27.8034 41.9794 27.8933 41.0207 28.0132L39.8522 28.2828L26.0999 32.5074C15.973 35.5634 8.36277 37.8405 3.26934 39.3386C1.89111 39.758 0.992273 40.4172 0.572814 41.316C0.213277 42.2149 0.363084 43.2335 1.02223 44.3721C2.16077 46.1098 3.98841 48.5966 6.50516 51.8325L8.48261 54.2593L9.47134 55.4278C10.6698 56.7461 11.4188 57.7948 11.7184 58.5738C13.2764 62.7084 15.7632 65.8843 19.1788 68.1015C22.6543 70.3186 26.4295 71.1575 30.5042 70.6182C32.1221 70.3785 34.6089 69.8692 37.9646 69.0902L41.8296 68.1914C41.4102 70.4085 40.751 73.6144 39.8522 77.809L38.6837 83.4717C38.2642 85.509 38.1144 87.0071 38.2342 87.9659C38.3541 88.9246 38.8335 89.5838 39.6724 89.9433C40.5113 90.3028 41.8895 90.4826 43.8071 90.4826C48.6009 90.4826 53.0951 89.374 57.2897 87.1569C61.3045 85.0596 64.6901 82.1234 67.4466 78.3483C70.203 74.5731 72.0307 70.3785 72.9295 65.7645C73.8883 60.8508 73.7684 55.9372 72.57 51.0235ZM32.9311 64.0567C31.0735 64.5361 29.156 64.626 27.1785 64.3263C25.2011 63.9668 23.4333 63.2477 21.8753 62.1691C20.1376 61.0306 18.8792 59.5625 18.1002 57.7648C22.7143 56.3267 26.5793 55.1582 29.6953 54.2593L32.9311 53.2706C35.9272 52.3718 38.1743 51.7426 39.6724 51.383C42.1891 50.7239 44.4662 50.2445 46.5036 49.9449C48.541 49.6453 50.5783 49.825 52.6157 50.4842C54.4733 51.1433 56.0912 52.162 57.4694 53.5403C58.9076 54.8586 59.8963 56.2967 60.4356 57.8547L56.7504 58.3041C53.155 58.7236 50.4884 59.143 48.7507 59.5625C46.7732 60.0419 44.1366 60.7909 40.8409 61.8096C37.6051 62.8283 34.9685 63.5773 32.9311 64.0567ZM61.694 76.1012C57.3196 81.9137 51.4472 84.7001 44.0767 84.4604C44.3164 83.3218 44.646 81.614 45.0654 79.337C45.5448 76.6405 45.9343 74.663 46.2339 73.4046C46.7732 71.2474 47.3425 69.3599 47.9417 67.7419C48.3013 66.7832 49.26 65.9742 50.818 65.3151C52.376 64.596 53.8441 64.2365 55.2223 64.2365C56.4208 64.2365 57.7091 64.626 59.0874 65.405C60.4656 66.1839 61.4243 67.0828 61.9637 68.1015C62.503 69.1202 62.7426 70.4984 62.6827 72.2361C62.6827 73.914 62.3531 75.2023 61.694 76.1012ZM65.9185 55.4278C64.2407 52.4317 62.0835 49.9748 59.4469 48.0573C56.8702 46.0799 53.9939 44.8215 50.818 44.2822C47.6421 43.683 44.4662 43.8328 41.2903 44.7316C38.6537 45.4507 34.7887 46.6192 29.6953 48.2371L21.2462 50.7538C18.25 51.5928 15.5235 51.443 13.0667 50.3044C10.6099 49.106 8.7223 47.0386 7.404 44.1024C9.74099 43.3833 13.1865 42.3047 17.7407 40.8666C27.3283 37.7506 34.549 35.5934 39.4027 34.3949C44.0168 33.2564 48.481 33.6159 52.7955 35.4736C56.9301 37.2113 60.3757 40.1176 63.1321 44.1923C65.9485 48.3869 67.5664 53.2107 67.9859 58.6636L65.9185 55.4278ZM66.0983 0.598524C63.7014 0.598524 61.4543 1.19775 59.357 2.3962C57.3196 3.59466 55.7017 5.24253 54.5033 7.33983C53.3048 9.3772 52.7056 11.5943 52.7056 13.9913C52.7056 16.3882 53.3048 18.6353 54.5033 20.7326C55.7017 22.7699 57.3196 24.3878 59.357 25.5863C61.3944 26.7848 63.6415 27.384 66.0983 27.384C68.5551 27.384 70.8022 26.7848 72.8396 25.5863C74.877 24.3878 76.4949 22.7699 77.6934 20.7326C78.8918 18.6353 79.491 16.3882 79.491 13.9913C79.491 11.5943 78.8918 9.3772 77.6934 7.33983C76.4949 5.24253 74.847 3.59466 72.7497 2.3962C70.7124 1.19775 68.4952 0.598524 66.0983 0.598524ZM66.0983 22.71C63.7014 22.71 61.6341 21.8711 59.8963 20.1933C58.2185 18.4555 57.3796 16.3882 57.3796 13.9913C57.3796 11.5943 58.2185 9.55697 59.8963 7.87913C61.6341 6.14137 63.7014 5.2725 66.0983 5.2725C68.4952 5.2725 70.5326 6.14137 72.2104 7.87913C73.9482 9.55697 74.8171 11.5943 74.8171 13.9913C74.8171 16.3882 73.9482 18.4555 72.2104 20.1933C70.5326 21.8711 68.4952 22.71 66.0983 22.71Z" fill="#7F56D9"/>
</svg>
